<svg version="1.1" id="Layer_1" xmlns="http://www.w3.org/2000/svg" xmlns:xlink="http://www.w3.org/1999/xlink" x="0px" y="0px"
	 width="100%" viewBox="0 0 321 104" enable-background="new 0 0 321 104" xml:space="preserve">
<path fill="#FFFFFF" opacity="1.000000" stroke="none" 
	d="
M1.000000,34.000000 
	C1.000000,23.034733 1.000000,12.069465 1.000000,1.000000 
	C36.020828,1.000000 71.041756,1.000000 106.531342,1.468657 
	C107.000000,10.541117 107.000000,19.144920 107.000000,28.138847 
	C116.603889,28.138847 125.682228,28.138847 134.726044,28.138847 
	C134.726044,33.949379 134.726044,39.354576 134.726044,45.154701 
	C128.047775,45.154701 121.635925,45.154701 115.281723,45.154701 
	C115.281723,54.631042 115.281723,63.703358 115.281723,73.170349 
	C121.969238,73.170349 128.379990,73.170349 135.000000,73.170349 
	C135.000000,84.046806 135.000000,94.523399 135.000000,105.000000 
	C129.311951,105.000000 123.623917,105.000000 117.795807,104.650490 
	C117.429161,102.869606 117.299164,101.415016 116.961525,100.010345 
	C112.001266,79.374344 106.820808,58.787811 102.213631,38.073662 
	C101.406586,34.445148 100.136978,33.912697 97.095764,33.958942 
	C89.102371,34.080505 81.105476,34.047234 73.110939,33.972103 
	C70.626396,33.948750 69.523872,34.500935 68.865326,37.381557 
	C65.857788,50.537193 62.251503,63.554611 59.112976,76.682091 
	C56.868065,86.071838 55.023304,95.557266 53.000000,105.000000 
	C49.307091,105.000000 45.614182,105.000000 41.552010,104.654297 
	C53.978069,98.483559 55.663128,83.006821 44.859406,68.630394 
	C50.387436,64.393250 50.100613,58.313812 50.054222,52.149414 
	C49.985767,43.053082 45.002739,33.570351 31.978325,33.940907 
	C21.660009,34.234474 11.326669,34.000000 1.000000,34.000000 
z"/>
<path fill="#FFFFFF" opacity="1.000000" stroke="none" 
	d="
M237.000000,1.000000 
	C265.227875,1.000000 293.455780,1.000000 322.000000,1.000000 
	C322.000000,11.685480 322.000000,22.374083 321.663605,33.531769 
	C320.884735,34.056122 320.442261,34.111393 319.536804,34.089264 
	C306.506531,34.011864 293.939178,34.011864 281.000000,34.011864 
	C281.000000,57.944130 281.000000,81.472061 281.000000,105.000000 
	C279.933319,105.000000 278.866669,105.000000 277.399994,104.531761 
	C277.000000,98.468712 277.000000,92.873901 277.000000,86.909203 
	C270.440674,86.909203 264.371338,86.909203 257.967896,86.909203 
	C257.967896,69.154671 257.967896,51.780285 257.967896,34.352306 
	C250.434082,34.352306 243.257568,34.352306 236.000000,34.352306 
	C236.000000,58.136337 236.000000,81.568169 236.000000,105.000000 
	C227.645767,105.000000 219.291534,105.000000 210.468658,104.531342 
	C210.000000,93.792877 210.000000,83.523071 210.000000,72.861008 
	C216.937027,72.861008 223.351379,72.861008 229.726166,72.861008 
	C229.726166,63.385204 229.726166,54.313171 229.726166,44.845661 
	C223.046722,44.845661 216.633820,44.845661 210.281860,44.845661 
	C210.281860,39.034977 210.281860,33.629742 210.281860,27.829903 
	C219.302460,27.829903 228.047821,27.829903 237.000000,27.829903 
	C237.000000,18.620317 237.000000,9.810159 237.000000,1.000000 
z"/>
<path fill="#000103" opacity="1.000000" stroke="none" 
	d="
M236.531342,1.000000 
	C237.000000,9.810159 237.000000,18.620317 237.000000,27.829903 
	C228.047821,27.829903 219.302460,27.829903 210.281860,27.829903 
	C210.281860,33.629742 210.281860,39.034977 210.281860,44.845661 
	C216.633820,44.845661 223.046722,44.845661 229.726166,44.845661 
	C229.726166,54.313171 229.726166,63.385204 229.726166,72.861008 
	C223.351379,72.861008 216.937027,72.861008 210.000000,72.861008 
	C210.000000,83.523071 210.000000,93.792877 210.000000,104.531342 
	C199.312439,105.000000 188.624878,105.000000 177.468658,104.531342 
	C177.000000,69.708458 177.000000,35.354229 177.000000,1.000000 
	C196.687561,1.000000 216.375122,1.000000 236.531342,1.000000 
z"/>
<path fill="#000103" opacity="1.000000" stroke="none" 
	d="
M135.468658,105.000000 
	C135.000000,94.523399 135.000000,84.046806 135.000000,73.170349 
	C128.379990,73.170349 121.969238,73.170349 115.281723,73.170349 
	C115.281723,63.703358 115.281723,54.631042 115.281723,45.154701 
	C121.635925,45.154701 128.047775,45.154701 134.726044,45.154701 
	C134.726044,39.354576 134.726044,33.949379 134.726044,28.138847 
	C125.682228,28.138847 116.603889,28.138847 107.000000,28.138847 
	C107.000000,19.144920 107.000000,10.541117 107.000000,1.468657 
	C126.687561,1.000000 146.375122,1.000000 166.531342,1.468657 
	C167.000000,36.291542 167.000000,70.645775 167.000000,105.000000 
	C156.645767,105.000000 146.291550,105.000000 135.468658,105.000000 
z"/>
<path fill="#000103" opacity="1.000000" stroke="none" 
	d="
M1.000000,34.468658 
	C11.326669,34.000000 21.660009,34.234474 31.978325,33.940907 
	C45.002739,33.570351 49.985767,43.053082 50.054222,52.149414 
	C50.100613,58.313812 50.387436,64.393250 44.859406,68.630394 
	C55.663128,83.006821 53.978069,98.483559 41.091377,104.654297 
	C27.719435,105.000000 14.438870,105.000000 1.000000,105.000000 
	C1.000000,81.645988 1.000000,58.291653 1.000000,34.468658 
M28.998285,79.836540 
	C28.480644,76.556572 26.781513,74.796165 23.309643,75.161064 
	C23.309643,79.878845 23.309643,84.376556 23.309643,89.016396 
	C29.180111,88.632881 29.133463,84.700523 28.998285,79.836540 
M26.342983,49.893768 
	C25.371523,49.541027 24.400063,49.188286 23.273205,48.779118 
	C23.273205,53.459793 23.273205,57.639927 23.273205,61.913166 
	C29.597664,59.508980 30.501274,56.504932 26.342983,49.893768 
z"/>
<path fill="#000103" opacity="1.000000" stroke="none" 
	d="
M53.468582,105.000000 
	C55.023304,95.557266 56.868065,86.071838 59.112976,76.682091 
	C62.251503,63.554611 65.857788,50.537193 68.865326,37.381557 
	C69.523872,34.500935 70.626396,33.948750 73.110939,33.972103 
	C81.105476,34.047234 89.102371,34.080505 97.095764,33.958942 
	C100.136978,33.912697 101.406586,34.445148 102.213631,38.073662 
	C106.820808,58.787811 112.001266,79.374344 116.961525,100.010345 
	C117.299164,101.415016 117.429161,102.869606 117.327866,104.650490 
	C109.979050,105.000000 102.958107,105.000000 95.468445,104.588272 
	C92.061516,92.862480 92.061501,92.861290 80.429115,93.003914 
	C79.779831,93.011879 79.131104,93.065559 78.398811,93.102119 
	C77.247086,97.133850 76.123543,101.066925 75.000000,105.000000 
	C67.979050,105.000000 60.958103,105.000000 53.468582,105.000000 
M86.998535,68.767273 
	C86.529320,67.276436 86.060097,65.785606 85.590874,64.294769 
	C85.261780,64.314598 84.932686,64.334427 84.603592,64.354256 
	C83.776527,68.115044 82.949455,71.875824 82.081230,75.823753 
	C84.120560,75.823753 85.881531,75.823753 88.168320,75.823753 
	C87.745621,73.576553 87.372887,71.595009 86.998535,68.767273 
z"/>
<path fill="#000103" opacity="1.000000" stroke="none" 
	d="
M281.468658,105.000000 
	C281.000000,81.472061 281.000000,57.944130 281.000000,34.011864 
	C293.939178,34.011864 306.506531,34.011864 319.543304,34.430241 
	C320.675171,35.565746 321.337585,36.282875 322.000000,37.000000 
	C322.000000,42.022091 322.000000,47.044186 321.531769,52.533226 
	C315.462311,53.000179 309.861115,53.000179 304.234222,53.000179 
	C304.234222,55.559811 304.234222,57.626579 304.234222,60.069706 
	C308.530029,60.069706 312.609772,60.069706 317.000000,60.069706 
	C317.000000,63.407829 317.000000,66.362808 317.000000,69.317787 
	C317.000000,72.430283 317.000000,75.542770 317.000000,79.022400 
	C312.508545,79.022400 308.428589,79.022400 304.191650,79.022400 
	C304.191650,81.807030 304.191650,84.206497 304.191650,87.000000 
	C306.828400,87.000000 309.288422,86.876320 311.730988,87.029770 
	C315.160767,87.245247 318.577606,87.666664 322.000000,88.000000 
	C322.000000,88.444443 322.000000,88.888893 321.832428,89.755203 
	C321.776550,90.451378 321.888275,90.725693 322.000000,91.000000 
	C322.000000,91.444443 322.000000,91.888893 321.730469,92.896194 
	C321.640625,94.972694 321.820312,96.486343 322.000000,98.000000 
	C322.000000,98.000000 322.000000,98.500000 321.714569,98.965240 
	C320.952759,101.286987 320.476349,103.143486 320.000000,105.000000 
	C307.312439,105.000000 294.624878,105.000000 281.468658,105.000000 
z"/>
<path fill="#000103" opacity="1.000000" stroke="none" 
	d="
M236.468658,105.000000 
	C236.000000,81.568169 236.000000,58.136337 236.000000,34.352306 
	C243.257568,34.352306 250.434082,34.352306 257.967896,34.352306 
	C257.967896,51.780285 257.967896,69.154671 257.967896,86.909203 
	C264.371338,86.909203 270.440674,86.909203 277.000000,86.909203 
	C277.000000,92.873901 277.000000,98.468712 277.000000,104.531761 
	C263.645782,105.000000 250.291550,105.000000 236.468658,105.000000 
z"/>
<path fill="#FFFFFF" opacity="1.000000" stroke="none" 
	d="
M167.454102,105.000000 
	C167.000000,70.645775 167.000000,36.291542 167.000000,1.468657 
	C170.030594,1.000000 173.061188,1.000000 176.545898,1.000000 
	C177.000000,35.354229 177.000000,69.708458 177.000000,104.531342 
	C173.969406,105.000000 170.938812,105.000000 167.454102,105.000000 
z"/>
<path fill="#FFFFFF" opacity="1.000000" stroke="none" 
	d="
M322.000000,87.531342 
	C318.577606,87.666664 315.160767,87.245247 311.730988,87.029770 
	C309.288422,86.876320 306.828400,87.000000 304.191650,87.000000 
	C304.191650,84.206497 304.191650,81.807030 304.191650,79.022400 
	C308.428589,79.022400 312.508545,79.022400 317.000000,79.022400 
	C317.000000,75.542770 317.000000,72.430283 317.000000,69.317787 
	C317.000000,66.362808 317.000000,63.407829 317.000000,60.069706 
	C312.609772,60.069706 308.530029,60.069706 304.234222,60.069706 
	C304.234222,57.626579 304.234222,55.559811 304.234222,53.000179 
	C309.861115,53.000179 315.462311,53.000179 321.531769,53.000092 
	C322.000000,64.354225 322.000000,75.708458 322.000000,87.531342 
z"/>
<path fill="#FFFFFF" opacity="1.000000" stroke="none" 
	d="
M75.468399,105.000000 
	C76.123543,101.066925 77.247086,97.133850 78.398811,93.102119 
	C79.131104,93.065559 79.779831,93.011879 80.429115,93.003914 
	C92.061501,92.861290 92.061516,92.862480 94.999870,104.588272 
	C88.645599,105.000000 82.291206,105.000000 75.468399,105.000000 
z"/>
<path fill="#000103" opacity="1.000000" stroke="none" 
	d="
M320.500000,105.000000 
	C320.476349,103.143486 320.952759,101.286987 321.714600,99.215240 
	C321.666687,101.000000 321.333344,103.000000 320.500000,105.000000 
z"/>
<path fill="#000103" opacity="1.000000" stroke="none" 
	d="
M322.000000,36.625000 
	C321.337585,36.282875 320.675171,35.565746 320.006287,34.507645 
	C320.442261,34.111393 320.884735,34.056122 321.663605,34.000427 
	C322.000000,34.750000 322.000000,35.500000 322.000000,36.625000 
z"/>
<path fill="#000103" opacity="1.000000" stroke="none" 
	d="
M322.000000,97.583336 
	C321.820312,96.486343 321.640625,94.972694 321.730469,93.229523 
	C322.000000,94.388893 322.000000,95.777779 322.000000,97.583336 
z"/>
<path fill="#000103" opacity="1.000000" stroke="none" 
	d="
M322.000000,90.750000 
	C321.888275,90.725693 321.776550,90.451378 321.832428,90.088531 
	C322.000000,90.000000 322.000000,90.500000 322.000000,90.750000 
z"/>
<path fill="#FFFFFF" opacity="1.000000" stroke="none" 
	d="
M28.999086,80.273674 
	C29.133463,84.700523 29.180111,88.632881 23.309643,89.016396 
	C23.309643,84.376556 23.309643,79.878845 23.309643,75.161064 
	C26.781513,74.796165 28.480644,76.556572 28.999086,80.273674 
z"/>
<path fill="#FFFFFF" opacity="1.000000" stroke="none" 
	d="
M26.653576,50.170380 
	C30.501274,56.504932 29.597664,59.508980 23.273205,61.913166 
	C23.273205,57.639927 23.273205,53.459793 23.273205,48.779118 
	C24.400063,49.188286 25.371523,49.541027 26.653576,50.170380 
z"/>
<path fill="#FFFFFF" opacity="1.000000" stroke="none" 
	d="
M86.999344,69.190369 
	C87.372887,71.595009 87.745621,73.576553 88.168320,75.823753 
	C85.881531,75.823753 84.120560,75.823753 82.081230,75.823753 
	C82.949455,71.875824 83.776527,68.115044 84.603592,64.354256 
	C84.932686,64.334427 85.261780,64.314598 85.590874,64.294769 
	C86.060097,65.785606 86.529320,67.276436 86.999344,69.190369 
z"/>
</svg>